<svg id="Group_3622" data-name="Group 3622" xmlns="http://www.w3.org/2000/svg" width="61.928" height="54.052" viewBox="0 0 61.928 54.052">
  <g id="Group_3619" data-name="Group 3619" transform="translate(0 0)">
    <g id="Group_3618" data-name="Group 3618" transform="translate(0 0)">
      <g id="Group_3604" data-name="Group 3604" transform="translate(3.97 0)">
        <path id="Path_11612" data-name="Path 11612" d="M73.09,84.8,71.01,87.729,67.565,86.72l-2.7,2.366L61.747,87.31l-3.172,1.68L55.95,86.542l-3.474.9-1.99-2.987-3.588.078L45.65,81.171l-3.51-.752L41.7,76.857l-3.241-1.541.4-3.568-2.8-2.247,1.207-3.38-2.2-2.832,1.954-3.01-1.493-3.264,2.6-2.478-.7-3.52,3.1-1.813.131-3.587,3.432-1.049.955-3.46,3.582-.23,1.727-3.146,3.538.6,2.406-2.664,3.3,1.4,2.955-2.037,2.892,2.126,3.345-1.3L71.106,38.6l3.555-.494,1.63,3.2,3.573.339.849,3.487,3.4,1.154.021,3.589,3.041,1.907-.807,3.5,2.519,2.557-1.592,3.217,1.861,3.069-2.29,2.763,1.1,3.415L85.1,72.455l.286,3.578L82.1,77.474l-.547,3.547-3.53.645-1.35,3.325Z" transform="translate(-35.06 -35.034)" fill="#3db286"/>
      </g>
      <g id="Group_3614" data-name="Group 3614" transform="translate(0 32.96)">
        <g id="Group_3607" data-name="Group 3607" transform="translate(6.816)">
          <g id="Group_3606" data-name="Group 3606">
            <g id="Group_3605" data-name="Group 3605">
              <path id="Path_11613" data-name="Path 11613" d="M43.093,128.546a137.26,137.26,0,0,1,49.034,0s-1.676,9.675-3.643,12.557c0,0-15.038-3.705-43.1,0C45.386,141.1,43.294,136.78,43.093,128.546Z" transform="translate(-43.093 -126.35)" fill="#231f20"/>
            </g>
          </g>
        </g>
        <g id="Group_3610" data-name="Group 3610" transform="translate(46.591 7.376)">
          <g id="Group_3609" data-name="Group 3609">
            <g id="Group_3608" data-name="Group 3608">
              <path id="Path_11614" data-name="Path 11614" d="M163.062,146.786l5.567,1-3.939,4.117.164,7-11.561-2.678,7.52-.41Z" transform="translate(-153.292 -146.786)" fill="#231f20"/>
            </g>
          </g>
        </g>
        <g id="Group_3613" data-name="Group 3613" transform="translate(0 7.376)">
          <g id="Group_3612" data-name="Group 3612">
            <g id="Group_3611" data-name="Group 3611">
              <path id="Path_11615" data-name="Path 11615" d="M29.778,146.786l-5.568,1,3.94,4.117-.165,7,10.774-3.05-6.732-.038Z" transform="translate(-24.21 -146.786)" fill="#231f20"/>
            </g>
          </g>
        </g>
      </g>
      <g id="Group_3615" data-name="Group 3615" transform="translate(26.692 34.776)">
        <path id="Path_11616" data-name="Path 11616" d="M102.441,131.38l1.552,2.366,2.73.745-1.771,2.207.136,2.826-2.646-1-2.646,1,.135-2.826-1.771-2.207,2.73-.745Z" transform="translate(-98.16 -131.38)" fill="#3db286"/>
      </g>
      <g id="Group_3616" data-name="Group 3616" transform="translate(38.988 36.503)">
        <path id="Path_11617" data-name="Path 11617" d="M135.351,136.166l1.132,1.726,1.991.543-1.292,1.61.1,2.061-1.93-.731-1.93.731.1-2.061-1.292-1.61,1.991-.543Z" transform="translate(-132.228 -136.166)" fill="#3db286"/>
      </g>
      <g id="Group_3617" data-name="Group 3617" transform="translate(16.713 36.503)">
        <path id="Path_11618" data-name="Path 11618" d="M73.635,136.166l1.132,1.726,1.991.543-1.292,1.61.1,2.061-1.931-.731-1.93.731.1-2.061-1.292-1.61,1.991-.543Z" transform="translate(-70.513 -136.166)" fill="#3db286"/>
      </g>
    </g>
  </g>
</svg>
